<mxfile host="app.diagrams.net" modified="2024-03-29T19:57:57.608Z" agent="Mozilla/5.0 (Windows NT 10.0; Win64; x64) AppleWebKit/537.36 (KHTML, like Gecko) Chrome/122.0.0.0 Safari/537.36" etag="PIBB-i-UeRX_J_Uku5qL" version="24.1.0" type="device">
  <diagram name="Page-1" id="xUcnkT68zm8OhiW6iFF7">
    <mxGraphModel dx="333" dy="173" grid="1" gridSize="10" guides="1" tooltips="1" connect="1" arrows="1" fold="1" page="1" pageScale="1" pageWidth="827" pageHeight="1169" math="0" shadow="0">
      <root>
        <mxCell id="0" />
        <mxCell id="1" parent="0" />
        <mxCell id="OzdbiDBO0c3Q7-6nNzCR-17" value="" style="endArrow=none;dashed=1;html=1;dashPattern=12 12;strokeWidth=1;rounded=0;strokeColor=#808080;" edge="1" parent="1">
          <mxGeometry width="50" height="50" relative="1" as="geometry">
            <mxPoint x="280" y="500" as="sourcePoint" />
            <mxPoint x="280" y="60" as="targetPoint" />
          </mxGeometry>
        </mxCell>
        <mxCell id="OzdbiDBO0c3Q7-6nNzCR-16" value="" style="endArrow=none;dashed=1;html=1;dashPattern=12 12;strokeWidth=1;rounded=0;strokeColor=#808080;" edge="1" parent="1">
          <mxGeometry width="50" height="50" relative="1" as="geometry">
            <mxPoint x="60" y="279.83" as="sourcePoint" />
            <mxPoint x="500" y="279.83" as="targetPoint" />
          </mxGeometry>
        </mxCell>
        <mxCell id="OzdbiDBO0c3Q7-6nNzCR-2" value="" style="whiteSpace=wrap;html=1;aspect=fixed;fillColor=none;dashed=1;" vertex="1" parent="1">
          <mxGeometry x="80" y="80" width="400" height="400" as="geometry" />
        </mxCell>
        <mxCell id="OzdbiDBO0c3Q7-6nNzCR-1" value="Player 1" style="rhombus;whiteSpace=wrap;html=1;" vertex="1" parent="1">
          <mxGeometry x="110" y="90" width="100" height="100" as="geometry" />
        </mxCell>
        <mxCell id="OzdbiDBO0c3Q7-6nNzCR-3" value="Player 4" style="rhombus;whiteSpace=wrap;html=1;" vertex="1" parent="1">
          <mxGeometry x="110" y="210" width="100" height="100" as="geometry" />
        </mxCell>
        <mxCell id="OzdbiDBO0c3Q7-6nNzCR-4" value="Player 2" style="rhombus;whiteSpace=wrap;html=1;" vertex="1" parent="1">
          <mxGeometry x="350" y="90" width="100" height="100" as="geometry" />
        </mxCell>
        <mxCell id="OzdbiDBO0c3Q7-6nNzCR-5" value="Player 3" style="rhombus;whiteSpace=wrap;html=1;" vertex="1" parent="1">
          <mxGeometry x="350" y="210" width="100" height="100" as="geometry" />
        </mxCell>
        <mxCell id="OzdbiDBO0c3Q7-6nNzCR-6" value="" style="endArrow=none;html=1;rounded=0;" edge="1" parent="1">
          <mxGeometry width="50" height="50" relative="1" as="geometry">
            <mxPoint x="220" y="260" as="sourcePoint" />
            <mxPoint x="340" y="260" as="targetPoint" />
          </mxGeometry>
        </mxCell>
        <mxCell id="OzdbiDBO0c3Q7-6nNzCR-7" value="" style="endArrow=none;html=1;rounded=0;" edge="1" parent="1">
          <mxGeometry width="50" height="50" relative="1" as="geometry">
            <mxPoint x="220" y="140" as="sourcePoint" />
            <mxPoint x="340" y="140" as="targetPoint" />
          </mxGeometry>
        </mxCell>
        <mxCell id="OzdbiDBO0c3Q7-6nNzCR-10" value="" style="endArrow=none;html=1;rounded=0;" edge="1" parent="1">
          <mxGeometry width="50" height="50" relative="1" as="geometry">
            <mxPoint x="400" y="200" as="sourcePoint" />
            <mxPoint x="340" y="140" as="targetPoint" />
          </mxGeometry>
        </mxCell>
        <mxCell id="OzdbiDBO0c3Q7-6nNzCR-11" value="" style="endArrow=none;html=1;rounded=0;" edge="1" parent="1">
          <mxGeometry width="50" height="50" relative="1" as="geometry">
            <mxPoint x="220" y="260" as="sourcePoint" />
            <mxPoint x="160" y="200" as="targetPoint" />
          </mxGeometry>
        </mxCell>
        <mxCell id="OzdbiDBO0c3Q7-6nNzCR-12" value="" style="endArrow=none;html=1;rounded=0;" edge="1" parent="1">
          <mxGeometry width="50" height="50" relative="1" as="geometry">
            <mxPoint x="220" y="140" as="sourcePoint" />
            <mxPoint x="160" y="200" as="targetPoint" />
          </mxGeometry>
        </mxCell>
        <mxCell id="OzdbiDBO0c3Q7-6nNzCR-13" value="" style="endArrow=none;html=1;rounded=0;" edge="1" parent="1">
          <mxGeometry width="50" height="50" relative="1" as="geometry">
            <mxPoint x="400" y="200" as="sourcePoint" />
            <mxPoint x="340" y="260" as="targetPoint" />
          </mxGeometry>
        </mxCell>
        <mxCell id="OzdbiDBO0c3Q7-6nNzCR-14" value="&lt;font style=&quot;font-size: 30px;&quot;&gt;Start game&lt;/font&gt;" style="text;strokeColor=none;align=center;fillColor=none;html=1;verticalAlign=middle;whiteSpace=wrap;rounded=0;" vertex="1" parent="1">
          <mxGeometry x="200" y="180" width="160" height="40" as="geometry" />
        </mxCell>
        <mxCell id="OzdbiDBO0c3Q7-6nNzCR-19" value="" style="endArrow=classic;html=1;rounded=0;" edge="1" parent="1">
          <mxGeometry width="50" height="50" relative="1" as="geometry">
            <mxPoint x="280" y="60" as="sourcePoint" />
            <mxPoint x="160" y="60" as="targetPoint" />
          </mxGeometry>
        </mxCell>
        <mxCell id="OzdbiDBO0c3Q7-6nNzCR-20" value="" style="endArrow=classic;html=1;rounded=0;" edge="1" parent="1">
          <mxGeometry width="50" height="50" relative="1" as="geometry">
            <mxPoint x="60" y="280" as="sourcePoint" />
            <mxPoint x="60" y="140" as="targetPoint" />
          </mxGeometry>
        </mxCell>
        <mxCell id="OzdbiDBO0c3Q7-6nNzCR-21" value="" style="endArrow=classic;html=1;rounded=0;entryX=1;entryY=1;entryDx=0;entryDy=0;" edge="1" parent="1" target="OzdbiDBO0c3Q7-6nNzCR-26">
          <mxGeometry width="50" height="50" relative="1" as="geometry">
            <mxPoint x="280" y="50" as="sourcePoint" />
            <mxPoint x="350" y="50" as="targetPoint" />
          </mxGeometry>
        </mxCell>
        <mxCell id="OzdbiDBO0c3Q7-6nNzCR-22" value="" style="endArrow=classic;startArrow=classic;html=1;rounded=0;" edge="1" parent="1">
          <mxGeometry width="50" height="50" relative="1" as="geometry">
            <mxPoint x="350" y="340" as="sourcePoint" />
            <mxPoint x="450.33333333333337" y="340" as="targetPoint" />
          </mxGeometry>
        </mxCell>
        <mxCell id="OzdbiDBO0c3Q7-6nNzCR-24" value="" style="endArrow=classic;startArrow=classic;html=1;rounded=0;" edge="1" parent="1">
          <mxGeometry width="50" height="50" relative="1" as="geometry">
            <mxPoint x="500" y="210" as="sourcePoint" />
            <mxPoint x="500" y="190" as="targetPoint" />
          </mxGeometry>
        </mxCell>
        <mxCell id="OzdbiDBO0c3Q7-6nNzCR-25" value="0.6" style="text;strokeColor=none;align=center;fillColor=none;html=1;verticalAlign=middle;whiteSpace=wrap;rounded=0;" vertex="1" parent="1">
          <mxGeometry x="190" y="30" width="60" height="30" as="geometry" />
        </mxCell>
        <mxCell id="OzdbiDBO0c3Q7-6nNzCR-26" value="0.3" style="text;strokeColor=none;align=center;fillColor=none;html=1;verticalAlign=middle;whiteSpace=wrap;rounded=0;" vertex="1" parent="1">
          <mxGeometry x="280" y="20" width="60" height="30" as="geometry" />
        </mxCell>
        <mxCell id="OzdbiDBO0c3Q7-6nNzCR-27" value="0.1" style="text;strokeColor=none;align=center;fillColor=none;html=1;verticalAlign=middle;whiteSpace=wrap;rounded=0;" vertex="1" parent="1">
          <mxGeometry x="510" y="190" width="30" height="20" as="geometry" />
        </mxCell>
        <mxCell id="OzdbiDBO0c3Q7-6nNzCR-28" value="0.5" style="text;strokeColor=none;align=center;fillColor=none;html=1;verticalAlign=middle;whiteSpace=wrap;rounded=0;" vertex="1" parent="1">
          <mxGeometry x="385" y="320" width="30" height="20" as="geometry" />
        </mxCell>
        <mxCell id="OzdbiDBO0c3Q7-6nNzCR-29" value="0.7" style="text;strokeColor=none;align=center;fillColor=none;html=1;verticalAlign=middle;whiteSpace=wrap;rounded=0;" vertex="1" parent="1">
          <mxGeometry x="20" y="185" width="40" height="30" as="geometry" />
        </mxCell>
      </root>
    </mxGraphModel>
  </diagram>
</mxfile>
